<?xml version="1.0" encoding="UTF-8" standalone="no"?>
<!DOCTYPE svg PUBLIC "-//W3C//DTD SVG 1.1//EN"
 "http://www.w3.org/Graphics/SVG/1.1/DTD/svg11.dtd">
<!-- Generated by graphviz version 2.38.0 (20140413.2041)
 -->
<!-- Title: G Pages: 1 -->
<svg width="447pt" height="2706pt"
 viewBox="0.00 0.00 446.64 2706.00" xmlns="http://www.w3.org/2000/svg" xmlns:xlink="http://www.w3.org/1999/xlink">
<g id="graph0" class="graph" transform="scale(1 1) rotate(0) translate(4 2702)">
<title>G</title>
<polygon fill="white" stroke="none" points="-4,4 -4,-2702 442.644,-2702 442.644,4 -4,4"/>
<g id="clust1" class="cluster"><title>cluster_Global</title>
<path fill="none" stroke="gray" d="M20,-44C20,-44 418.644,-44 418.644,-44 424.644,-44 430.644,-50 430.644,-56 430.644,-56 430.644,-2678 430.644,-2678 430.644,-2684 424.644,-2690 418.644,-2690 418.644,-2690 20,-2690 20,-2690 14,-2690 8,-2684 8,-2678 8,-2678 8,-56 8,-56 8,-50 14,-44 20,-44"/>
<text text-anchor="middle" x="219.322" y="-2677.2" font-family="Times,serif" font-size="11.00" fill="gray">Global</text>
</g>
<g id="clust2" class="cluster"><title>cluster_\Sajari</title>
<path fill="none" stroke="gray" d="M28,-52C28,-52 410.644,-52 410.644,-52 416.644,-52 422.644,-58 422.644,-64 422.644,-64 422.644,-2651 422.644,-2651 422.644,-2657 416.644,-2663 410.644,-2663 410.644,-2663 28,-2663 28,-2663 22,-2663 16,-2657 16,-2651 16,-2651 16,-64 16,-64 16,-58 22,-52 28,-52"/>
<text text-anchor="middle" x="219.322" y="-2650.2" font-family="Times,serif" font-size="11.00" fill="gray">Sajari</text>
</g>
<g id="clust3" class="cluster"><title>cluster_\Sajari\Client</title>
<path fill="none" stroke="gray" d="M59.907,-2403C59.907,-2403 359.737,-2403 359.737,-2403 365.737,-2403 371.737,-2409 371.737,-2415 371.737,-2415 371.737,-2624 371.737,-2624 371.737,-2630 365.737,-2636 359.737,-2636 359.737,-2636 59.907,-2636 59.907,-2636 53.907,-2636 47.907,-2630 47.907,-2624 47.907,-2624 47.907,-2415 47.907,-2415 47.907,-2409 53.907,-2403 59.907,-2403"/>
<text text-anchor="middle" x="209.822" y="-2623.2" font-family="Times,serif" font-size="11.00" fill="gray">Client</text>
</g>
<g id="clust4" class="cluster"><title>cluster_\Sajari\Error</title>
<path fill="none" stroke="gray" d="M209.814,-1892C209.814,-1892 402.644,-1892 402.644,-1892 408.644,-1892 414.644,-1898 414.644,-1904 414.644,-1904 414.644,-2383 414.644,-2383 414.644,-2389 408.644,-2395 402.644,-2395 402.644,-2395 209.814,-2395 209.814,-2395 203.814,-2395 197.814,-2389 197.814,-2383 197.814,-2383 197.814,-1904 197.814,-1904 197.814,-1898 203.814,-1892 209.814,-1892"/>
<text text-anchor="middle" x="306.229" y="-2382.2" font-family="Times,serif" font-size="11.00" fill="gray">Error</text>
</g>
<g id="clust5" class="cluster"><title>cluster_\Sajari\Record</title>
<path fill="none" stroke="gray" d="M275.825,-1651C275.825,-1651 336.633,-1651 336.633,-1651 342.633,-1651 348.633,-1657 348.633,-1663 348.633,-1663 348.633,-1872 348.633,-1872 348.633,-1878 342.633,-1884 336.633,-1884 336.633,-1884 275.825,-1884 275.825,-1884 269.825,-1884 263.825,-1878 263.825,-1872 263.825,-1872 263.825,-1663 263.825,-1663 263.825,-1657 269.825,-1651 275.825,-1651"/>
<text text-anchor="middle" x="306.229" y="-1871.2" font-family="Times,serif" font-size="11.00" fill="gray">Record</text>
</g>
<g id="clust6" class="cluster"><title>cluster_\Sajari\Search</title>
<path fill="none" stroke="gray" d="M36,-60C36,-60 386.141,-60 386.141,-60 392.141,-60 398.141,-66 398.141,-72 398.141,-72 398.141,-1631 398.141,-1631 398.141,-1637 392.141,-1643 386.141,-1643 386.141,-1643 36,-1643 36,-1643 30,-1643 24,-1637 24,-1631 24,-1631 24,-72 24,-72 24,-66 30,-60 36,-60"/>
<text text-anchor="middle" x="211.071" y="-1630.2" font-family="Times,serif" font-size="11.00" fill="gray">Search</text>
</g>
<!-- \\Sajari\\Client\\Client -->
<g id="node1" class="node"><title>\\Sajari\\Client\\Client</title>
<polygon fill="none" stroke="black" points="333.837,-2609 278.621,-2609 278.621,-2573 333.837,-2573 333.837,-2609"/>
<text text-anchor="middle" x="306.229" y="-2587.7" font-family="Courier,monospace" font-size="11.00">Client</text>
</g>
<!-- \\Sajari\\Client\\WithAuth -->
<g id="node2" class="node"><title>\\Sajari\\Client\\WithAuth</title>
<polygon fill="none" stroke="black" points="340.538,-2447 271.92,-2447 271.92,-2411 340.538,-2411 340.538,-2447"/>
<text text-anchor="middle" x="306.229" y="-2425.7" font-family="Courier,monospace" font-size="11.00">WithAuth</text>
</g>
<!-- \\Sajari\\Client\\Opt -->
<g id="node5" class="node"><title>\\Sajari\\Client\\Opt</title>
<polygon fill="none" stroke="black" points="109.907,-2501 55.907,-2501 55.907,-2465 109.907,-2465 109.907,-2501"/>
<text text-anchor="middle" x="82.907" y="-2479.7" font-family="Courier,monospace" font-size="11.00">Opt</text>
</g>
<!-- \\Sajari\\Client\\WithAuth&#45;&gt;\\Sajari\\Client\\Opt -->
<g id="edge1" class="edge"><title>\\Sajari\\Client\\WithAuth&#45;&gt;\\Sajari\\Client\\Opt</title>
<path fill="none" stroke="black" stroke-dasharray="1,5" d="M271.615,-2437.2C230.727,-2447.18 161.981,-2463.95 120.002,-2474.19"/>
<polygon fill="none" stroke="black" points="119.081,-2470.82 110.195,-2476.59 120.74,-2477.62 119.081,-2470.82"/>
</g>
<!-- \\Sajari\\Client\\WithCredentials -->
<g id="node3" class="node"><title>\\Sajari\\Client\\WithCredentials</title>
<polygon fill="none" stroke="black" points="363.745,-2555 248.713,-2555 248.713,-2519 363.745,-2519 363.745,-2555"/>
<text text-anchor="middle" x="306.229" y="-2533.7" font-family="Courier,monospace" font-size="11.00">WithCredentials</text>
</g>
<!-- \\Sajari\\Client\\WithCredentials&#45;&gt;\\Sajari\\Client\\Opt -->
<g id="edge2" class="edge"><title>\\Sajari\\Client\\WithCredentials&#45;&gt;\\Sajari\\Client\\Opt</title>
<path fill="none" stroke="black" stroke-dasharray="1,5" d="M248.52,-2523.16C207.955,-2513.27 154.582,-2500.24 119.772,-2491.75"/>
<polygon fill="none" stroke="black" points="120.581,-2488.35 110.037,-2489.38 118.922,-2495.15 120.581,-2488.35"/>
</g>
<!-- \\Sajari\\Client\\WithEndpoint -->
<g id="node4" class="node"><title>\\Sajari\\Client\\WithEndpoint</title>
<polygon fill="none" stroke="black" points="353.942,-2501 258.516,-2501 258.516,-2465 353.942,-2465 353.942,-2501"/>
<text text-anchor="middle" x="306.229" y="-2479.7" font-family="Courier,monospace" font-size="11.00">WithEndpoint</text>
</g>
<!-- \\Sajari\\Client\\WithEndpoint&#45;&gt;\\Sajari\\Client\\Opt -->
<g id="edge3" class="edge"><title>\\Sajari\\Client\\WithEndpoint&#45;&gt;\\Sajari\\Client\\Opt</title>
<path fill="none" stroke="black" stroke-dasharray="1,5" d="M258.563,-2483C217.294,-2483 157.933,-2483 120.147,-2483"/>
<polygon fill="none" stroke="black" points="120.095,-2479.5 110.095,-2483 120.095,-2486.5 120.095,-2479.5"/>
</g>
<!-- \\Sajari\\Error\\AlreadyExistsException -->
<g id="node6" class="node"><title>\\Sajari\\Error\\AlreadyExistsException</title>
<polygon fill="none" stroke="black" points="386.953,-2368 225.505,-2368 225.505,-2332 386.953,-2332 386.953,-2368"/>
<text text-anchor="middle" x="306.229" y="-2346.7" font-family="Courier,monospace" font-size="11.00">AlreadyExistsException</text>
</g>
<!-- \\Exception -->
<g id="node52" class="node"><title>\\Exception</title>
<ellipse fill="none" stroke="black" cx="82.907" cy="-18" rx="40.6162" ry="18"/>
<text text-anchor="middle" x="82.907" y="-13.8" font-family="Times,serif" font-size="14.00" fill="gray">xception</text>
</g>
<!-- \\Sajari\\Error\\AlreadyExistsException&#45;&gt;\\Exception -->
<g id="edge4" class="edge"><title>\\Sajari\\Error\\AlreadyExistsException&#45;&gt;\\Exception</title>
<path fill="none" stroke="black" d="M225.45,-2342.58C214.773,-2338.26 205.036,-2332 197.814,-2323 40.0752,-2126.49 248.862,-280.193 133.814,-56 130.143,-48.8469 124.439,-42.6591 118.179,-37.4748"/>
<polygon fill="none" stroke="black" points="120.18,-34.6007 110.065,-31.4476 116.006,-40.2202 120.18,-34.6007"/>
</g>
<!-- \\Sajari\\Error\\Exception -->
<g id="node7" class="node"><title>\\Sajari\\Error\\Exception</title>
<polygon fill="none" stroke="black" points="344.14,-2314 268.318,-2314 268.318,-2278 344.14,-2278 344.14,-2314"/>
<text text-anchor="middle" x="306.229" y="-2292.7" font-family="Courier,monospace" font-size="11.00">Exception</text>
</g>
<!-- \\Sajari\\Error\\Exception&#45;&gt;\\Exception -->
<g id="edge5" class="edge"><title>\\Sajari\\Error\\Exception&#45;&gt;\\Exception</title>
<path fill="none" stroke="black" d="M268.394,-2297.26C244.347,-2295.92 214.432,-2289.69 197.814,-2269 43.7635,-2077.22 246.2,-274.818 133.814,-56 130.141,-48.8481 124.435,-42.6609 118.176,-37.4768"/>
<polygon fill="none" stroke="black" points="120.176,-34.6027 110.061,-31.4495 116.002,-40.2221 120.176,-34.6027"/>
</g>
<!-- \\Sajari\\Error\\MalformedRequestException -->
<g id="node8" class="node"><title>\\Sajari\\Error\\MalformedRequestException</title>
<polygon fill="none" stroke="black" points="396.756,-2260 215.702,-2260 215.702,-2224 396.756,-2224 396.756,-2260"/>
<text text-anchor="middle" x="306.229" y="-2238.7" font-family="Courier,monospace" font-size="11.00">MalformedRequestException</text>
</g>
<!-- \\Sajari\\Error\\MalformedRequestException&#45;&gt;\\Exception -->
<g id="edge6" class="edge"><title>\\Sajari\\Error\\MalformedRequestException&#45;&gt;\\Exception</title>
<path fill="none" stroke="black" d="M215.649,-2229.86C208.866,-2226.01 202.753,-2221.14 197.814,-2215 47.4517,-2027.95 243.537,-269.444 133.814,-56 130.138,-48.8495 124.432,-42.6628 118.172,-37.4788"/>
<polygon fill="none" stroke="black" points="120.172,-34.6047 110.057,-31.4515 115.998,-40.2241 120.172,-34.6047"/>
</g>
<!-- \\Sajari\\Error\\MultiRecordNotFoundException -->
<g id="node9" class="node"><title>\\Sajari\\Error\\MultiRecordNotFoundException</title>
<polygon fill="none" stroke="black" points="406.559,-2206 205.899,-2206 205.899,-2170 406.559,-2170 406.559,-2206"/>
<text text-anchor="middle" x="306.229" y="-2184.7" font-family="Courier,monospace" font-size="11.00">MultiRecordNotFoundException</text>
</g>
<!-- \\Sajari\\Error\\MultiRecordNotFoundException&#45;&gt;\\Exception -->
<g id="edge7" class="edge"><title>\\Sajari\\Error\\MultiRecordNotFoundException&#45;&gt;\\Exception</title>
<path fill="none" stroke="black" d="M206.704,-2169.83C203.455,-2167.23 200.466,-2164.3 197.814,-2161 51.1399,-1978.68 240.874,-264.069 133.814,-56 130.135,-48.8509 124.428,-42.6648 118.168,-37.4809"/>
<polygon fill="none" stroke="black" points="120.168,-34.6069 110.053,-31.4535 115.994,-40.2262 120.168,-34.6069"/>
</g>
<!-- \\Sajari\\Error\\NotFoundException -->
<g id="node10" class="node"><title>\\Sajari\\Error\\NotFoundException</title>
<polygon fill="none" stroke="black" points="370.447,-2152 242.011,-2152 242.011,-2116 370.447,-2116 370.447,-2152"/>
<text text-anchor="middle" x="306.229" y="-2130.7" font-family="Courier,monospace" font-size="11.00">NotFoundException</text>
</g>
<!-- \\Sajari\\Error\\NotFoundException&#45;&gt;\\Exception -->
<g id="edge8" class="edge"><title>\\Sajari\\Error\\NotFoundException&#45;&gt;\\Exception</title>
<path fill="none" stroke="black" d="M241.998,-2131.67C225.165,-2127.82 208.667,-2120.48 197.814,-2107 54.828,-1929.41 238.211,-258.695 133.814,-56 130.133,-48.8523 124.424,-42.6669 118.163,-37.4831"/>
<polygon fill="none" stroke="black" points="120.164,-34.6092 110.049,-31.4557 115.99,-40.2285 120.164,-34.6092"/>
</g>
<!-- \\Sajari\\Error\\PermissionDeniedException -->
<g id="node11" class="node"><title>\\Sajari\\Error\\PermissionDeniedException</title>
<polygon fill="none" stroke="black" points="396.756,-2098 215.702,-2098 215.702,-2062 396.756,-2062 396.756,-2098"/>
<text text-anchor="middle" x="306.229" y="-2076.7" font-family="Courier,monospace" font-size="11.00">PermissionDeniedException</text>
</g>
<!-- \\Sajari\\Error\\PermissionDeniedException&#45;&gt;\\Exception -->
<g id="edge9" class="edge"><title>\\Sajari\\Error\\PermissionDeniedException&#45;&gt;\\Exception</title>
<path fill="none" stroke="black" d="M215.664,-2067.85C208.878,-2064 202.761,-2059.14 197.814,-2053 58.5161,-1880.14 235.548,-253.321 133.814,-56 130.13,-48.8539 124.42,-42.6691 118.159,-37.4855"/>
<polygon fill="none" stroke="black" points="120.159,-34.6116 110.045,-31.458 115.985,-40.2308 120.159,-34.6116"/>
</g>
<!-- \\Sajari\\Error\\RecordNotFoundException -->
<g id="node12" class="node"><title>\\Sajari\\Error\\RecordNotFoundException</title>
<polygon fill="none" stroke="black" points="390.054,-2044 222.404,-2044 222.404,-2008 390.054,-2008 390.054,-2044"/>
<text text-anchor="middle" x="306.229" y="-2022.7" font-family="Courier,monospace" font-size="11.00">RecordNotFoundException</text>
</g>
<!-- \\Sajari\\Error\\RecordNotFoundException&#45;&gt;\\Exception -->
<g id="edge10" class="edge"><title>\\Sajari\\Error\\RecordNotFoundException&#45;&gt;\\Exception</title>
<path fill="none" stroke="black" d="M222.312,-2017.19C212.881,-2012.96 204.333,-2007.08 197.814,-1999 62.204,-1830.87 232.886,-247.946 133.814,-56 130.126,-48.8555 124.415,-42.6714 118.154,-37.488"/>
<polygon fill="none" stroke="black" points="120.154,-34.6141 110.04,-31.4604 115.98,-40.2333 120.154,-34.6141"/>
</g>
<!-- \\Sajari\\Error\\ServiceUnavailableException -->
<g id="node13" class="node"><title>\\Sajari\\Error\\ServiceUnavailableException</title>
<polygon fill="none" stroke="black" points="403.458,-1990 209,-1990 209,-1954 403.458,-1954 403.458,-1990"/>
<text text-anchor="middle" x="306.229" y="-1968.7" font-family="Courier,monospace" font-size="11.00">ServiceUnavailableException</text>
</g>
<!-- \\Sajari\\Error\\ServiceUnavailableException&#45;&gt;\\Exception -->
<g id="edge11" class="edge"><title>\\Sajari\\Error\\ServiceUnavailableException&#45;&gt;\\Exception</title>
<path fill="none" stroke="black" d="M208.975,-1955.53C204.843,-1952.53 201.075,-1949.04 197.814,-1945 65.8919,-1781.6 230.223,-242.572 133.814,-56 130.123,-48.8573 124.41,-42.6739 118.149,-37.4906"/>
<polygon fill="none" stroke="black" points="120.149,-34.6168 110.035,-31.463 115.975,-40.236 120.149,-34.6168"/>
</g>
<!-- \\Sajari\\Error\\UnauthenticatedException -->
<g id="node14" class="node"><title>\\Sajari\\Error\\UnauthenticatedException</title>
<polygon fill="none" stroke="black" points="393.655,-1936 218.803,-1936 218.803,-1900 393.655,-1900 393.655,-1936"/>
<text text-anchor="middle" x="306.229" y="-1914.7" font-family="Courier,monospace" font-size="11.00">UnauthenticatedException</text>
</g>
<!-- \\Sajari\\Error\\UnauthenticatedException&#45;&gt;\\Exception -->
<g id="edge12" class="edge"><title>\\Sajari\\Error\\UnauthenticatedException&#45;&gt;\\Exception</title>
<path fill="none" stroke="black" d="M218.853,-1905.1C210.776,-1900.81 203.501,-1895.23 197.814,-1888 71.862,-1727.93 227.412,-236.9 133.814,-56 130.119,-48.8592 124.405,-42.6767 118.143,-37.4936"/>
<polygon fill="none" stroke="black" points="120.144,-34.6198 110.029,-31.4659 115.969,-40.239 120.144,-34.6198"/>
</g>
<!-- \\Sajari\\Record\\Key -->
<g id="node15" class="node"><title>\\Sajari\\Record\\Key</title>
<polygon fill="none" stroke="black" points="333.229,-1857 279.229,-1857 279.229,-1821 333.229,-1821 333.229,-1857"/>
<text text-anchor="middle" x="306.229" y="-1835.7" font-family="Courier,monospace" font-size="11.00">Key</text>
</g>
<!-- \\Sajari\\Record\\KeyValue -->
<g id="node16" class="node"><title>\\Sajari\\Record\\KeyValue</title>
<polygon fill="none" stroke="black" points="340.538,-1803 271.92,-1803 271.92,-1767 340.538,-1767 340.538,-1803"/>
<text text-anchor="middle" x="306.229" y="-1781.7" font-family="Courier,monospace" font-size="11.00">KeyValue</text>
</g>
<!-- \\Sajari\\Record\\Record -->
<g id="node17" class="node"><title>\\Sajari\\Record\\Record</title>
<polygon fill="none" stroke="black" points="333.837,-1749 278.621,-1749 278.621,-1713 333.837,-1713 333.837,-1749"/>
<text text-anchor="middle" x="306.229" y="-1727.7" font-family="Courier,monospace" font-size="11.00">Record</text>
</g>
<!-- \\Sajari\\Record\\Value -->
<g id="node18" class="node"><title>\\Sajari\\Record\\Value</title>
<polygon fill="none" stroke="black" points="333.229,-1695 279.229,-1695 279.229,-1659 333.229,-1659 333.229,-1695"/>
<text text-anchor="middle" x="306.229" y="-1673.7" font-family="Courier,monospace" font-size="11.00">Value</text>
</g>
<!-- \\Sajari\\Search\\Aggregate -->
<g id="node19" class="node"><title>\\Sajari\\Search\\Aggregate</title>
<polygon fill="none" stroke="black" points="123.918,-1346 41.8962,-1346 41.8962,-1310 123.918,-1310 123.918,-1346"/>
<text text-anchor="start" x="49.9016" y="-1330.2" font-family="Courier,monospace" font-size="11.00">«abstract»</text>
<text text-anchor="start" x="53.2021" y="-1319.2" font-family="Courier,monospace" font-size="11.00">Aggregate</text>
</g>
<!-- \\Sajari\\Search\\Body -->
<g id="node20" class="node"><title>\\Sajari\\Search\\Body</title>
<polygon fill="none" stroke="black" points="333.229,-1616 279.229,-1616 279.229,-1580 333.229,-1580 333.229,-1616"/>
<text text-anchor="middle" x="306.229" y="-1594.7" font-family="Courier,monospace" font-size="11.00">Body</text>
</g>
<!-- \\Sajari\\Search\\BucketAggregate -->
<g id="node21" class="node"><title>\\Sajari\\Search\\BucketAggregate</title>
<polygon fill="none" stroke="black" points="363.745,-1562 248.713,-1562 248.713,-1526 363.745,-1526 363.745,-1562"/>
<text text-anchor="middle" x="306.229" y="-1540.7" font-family="Courier,monospace" font-size="11.00">BucketAggregate</text>
</g>
<!-- \\Sajari\\Search\\BucketAggregate&#45;&gt;\\Sajari\\Search\\Aggregate -->
<g id="edge13" class="edge"><title>\\Sajari\\Search\\BucketAggregate&#45;&gt;\\Sajari\\Search\\Aggregate</title>
<path fill="none" stroke="black" d="M248.632,-1538.29C231.072,-1534.39 212.495,-1527.87 197.814,-1517 141.636,-1475.41 107.675,-1397.1 92.7988,-1355.53"/>
<polygon fill="none" stroke="black" points="96.0909,-1354.34 89.5065,-1346.04 89.4776,-1356.64 96.0909,-1354.34"/>
</g>
<!-- \\Sajari\\Search\\BucketAggregateEntry -->
<g id="node22" class="node"><title>\\Sajari\\Search\\BucketAggregateEntry</title>
<polygon fill="none" stroke="black" points="380.25,-1508 232.208,-1508 232.208,-1472 380.25,-1472 380.25,-1508"/>
<text text-anchor="middle" x="306.229" y="-1486.7" font-family="Courier,monospace" font-size="11.00">BucketAggregateEntry</text>
</g>
<!-- \\Sajari\\Search\\BucketResponseAggregate -->
<g id="node23" class="node"><title>\\Sajari\\Search\\BucketResponseAggregate</title>
<polygon fill="none" stroke="black" points="390.054,-1454 222.404,-1454 222.404,-1418 390.054,-1418 390.054,-1454"/>
<text text-anchor="middle" x="306.229" y="-1432.7" font-family="Courier,monospace" font-size="11.00">BucketResponseAggregate</text>
</g>
<!-- \\Sajari\\Search\\ClickToken -->
<g id="node24" class="node"><title>\\Sajari\\Search\\ClickToken</title>
<polygon fill="none" stroke="black" points="347.24,-1400 265.218,-1400 265.218,-1364 347.24,-1364 347.24,-1400"/>
<text text-anchor="middle" x="306.229" y="-1378.7" font-family="Courier,monospace" font-size="11.00">ClickToken</text>
</g>
<!-- \\Sajari\\Search\\CombinatorFilter -->
<g id="node25" class="node"><title>\\Sajari\\Search\\CombinatorFilter</title>
<polygon fill="none" stroke="black" points="366.847,-968 245.611,-968 245.611,-932 366.847,-932 366.847,-968"/>
<text text-anchor="middle" x="306.229" y="-946.7" font-family="Courier,monospace" font-size="11.00">CombinatorFilter</text>
</g>
<!-- \\Sajari\\Search\\Filter -->
<g id="node34" class="node"><title>\\Sajari\\Search\\Filter</title>
<polygon fill="none" stroke="black" points="123.918,-1022 41.8962,-1022 41.8962,-986 123.918,-986 123.918,-1022"/>
<text text-anchor="start" x="49.9016" y="-1006.2" font-family="Courier,monospace" font-size="11.00">«abstract»</text>
<text text-anchor="start" x="63.1038" y="-995.2" font-family="Courier,monospace" font-size="11.00">Filter</text>
</g>
<!-- \\Sajari\\Search\\CombinatorFilter&#45;&gt;\\Sajari\\Search\\Filter -->
<g id="edge14" class="edge"><title>\\Sajari\\Search\\CombinatorFilter&#45;&gt;\\Sajari\\Search\\Filter</title>
<path fill="none" stroke="black" d="M245.336,-964.613C210.415,-973.134 166.883,-983.755 133.827,-991.82"/>
<polygon fill="none" stroke="black" points="132.811,-988.465 123.926,-994.236 134.47,-995.266 132.811,-988.465"/>
</g>
<!-- \\Sajari\\Search\\CountAggregate -->
<g id="node26" class="node"><title>\\Sajari\\Search\\CountAggregate</title>
<polygon fill="none" stroke="black" points="360.645,-1346 251.813,-1346 251.813,-1310 360.645,-1310 360.645,-1346"/>
<text text-anchor="middle" x="306.229" y="-1324.7" font-family="Courier,monospace" font-size="11.00">CountAggregate</text>
</g>
<!-- \\Sajari\\Search\\CountAggregate&#45;&gt;\\Sajari\\Search\\Aggregate -->
<g id="edge15" class="edge"><title>\\Sajari\\Search\\CountAggregate&#45;&gt;\\Sajari\\Search\\Aggregate</title>
<path fill="none" stroke="black" d="M251.935,-1328C216.079,-1328 169.116,-1328 133.957,-1328"/>
<polygon fill="none" stroke="black" points="133.913,-1324.5 123.913,-1328 133.913,-1331.5 133.913,-1324.5"/>
</g>
<!-- \\Sajari\\Search\\CountResponseAggregate -->
<g id="node27" class="node"><title>\\Sajari\\Search\\CountResponseAggregate</title>
<polygon fill="none" stroke="black" points="386.953,-1238 225.505,-1238 225.505,-1202 386.953,-1202 386.953,-1238"/>
<text text-anchor="middle" x="306.229" y="-1216.7" font-family="Courier,monospace" font-size="11.00">CountResponseAggregate</text>
</g>
<!-- \\Sajari\\Search\\ElementFieldBoost -->
<g id="node28" class="node"><title>\\Sajari\\Search\\ElementFieldBoost</title>
<polygon fill="none" stroke="black" points="370.447,-914 242.011,-914 242.011,-878 370.447,-878 370.447,-914"/>
<text text-anchor="middle" x="306.229" y="-892.7" font-family="Courier,monospace" font-size="11.00">ElementFieldBoost</text>
</g>
<!-- \\Sajari\\Search\\FieldBoost -->
<g id="node31" class="node"><title>\\Sajari\\Search\\FieldBoost</title>
<polygon fill="none" stroke="black" points="123.918,-860 41.8962,-860 41.8962,-824 123.918,-824 123.918,-860"/>
<text text-anchor="start" x="49.9016" y="-844.2" font-family="Courier,monospace" font-size="11.00">«abstract»</text>
<text text-anchor="start" x="49.9016" y="-833.2" font-family="Courier,monospace" font-size="11.00">FieldBoost</text>
</g>
<!-- \\Sajari\\Search\\ElementFieldBoost&#45;&gt;\\Sajari\\Search\\FieldBoost -->
<g id="edge16" class="edge"><title>\\Sajari\\Search\\ElementFieldBoost&#45;&gt;\\Sajari\\Search\\FieldBoost</title>
<path fill="none" stroke="black" d="M242.103,-880.598C207.862,-872.244 166.124,-862.06 134.119,-854.251"/>
<polygon fill="none" stroke="black" points="134.636,-850.775 124.091,-851.805 132.977,-857.575 134.636,-850.775"/>
</g>
<!-- \\Sajari\\Search\\FeatureFieldBoost -->
<g id="node29" class="node"><title>\\Sajari\\Search\\FeatureFieldBoost</title>
<polygon fill="none" stroke="black" points="370.447,-1130 242.011,-1130 242.011,-1094 370.447,-1094 370.447,-1130"/>
<text text-anchor="middle" x="306.229" y="-1108.7" font-family="Courier,monospace" font-size="11.00">FeatureFieldBoost</text>
</g>
<!-- \\Sajari\\Search\\FeatureQuery -->
<g id="node30" class="node"><title>\\Sajari\\Search\\FeatureQuery</title>
<polygon fill="none" stroke="black" points="353.942,-1076 258.516,-1076 258.516,-1040 353.942,-1040 353.942,-1076"/>
<text text-anchor="middle" x="306.229" y="-1054.7" font-family="Courier,monospace" font-size="11.00">FeatureQuery</text>
</g>
<!-- \\Sajari\\Search\\FieldFilter -->
<g id="node32" class="node"><title>\\Sajari\\Search\\FieldFilter</title>
<polygon fill="none" stroke="black" points="350.342,-1184 262.116,-1184 262.116,-1148 350.342,-1148 350.342,-1184"/>
<text text-anchor="middle" x="306.229" y="-1162.7" font-family="Courier,monospace" font-size="11.00">FieldFilter</text>
</g>
<!-- \\Sajari\\Search\\FieldFilter&#45;&gt;\\Sajari\\Search\\Filter -->
<g id="edge17" class="edge"><title>\\Sajari\\Search\\FieldFilter&#45;&gt;\\Sajari\\Search\\Filter</title>
<path fill="none" stroke="black" d="M262.019,-1161.4C241.386,-1157.69 217.061,-1151.02 197.814,-1139 154.202,-1111.77 118.859,-1062.31 99.6587,-1031.41"/>
<polygon fill="none" stroke="black" points="102.408,-1029.19 94.2271,-1022.46 96.4243,-1032.82 102.408,-1029.19"/>
</g>
<!-- \\Sajari\\Search\\FieldInstanceBoost -->
<g id="node33" class="node"><title>\\Sajari\\Search\\FieldInstanceBoost</title>
<polygon fill="none" stroke="black" points="373.548,-536 238.91,-536 238.91,-500 373.548,-500 373.548,-536"/>
<text text-anchor="middle" x="306.229" y="-514.7" font-family="Courier,monospace" font-size="11.00">FieldInstanceBoost</text>
</g>
<!-- \\Sajari\\Search\\InstanceBoost -->
<g id="node38" class="node"><title>\\Sajari\\Search\\InstanceBoost</title>
<polygon fill="none" stroke="black" points="133.721,-590 32.0928,-590 32.0928,-554 133.721,-554 133.721,-590"/>
<text text-anchor="start" x="49.9016" y="-574.2" font-family="Courier,monospace" font-size="11.00">«abstract»</text>
<text text-anchor="start" x="40" y="-563.2" font-family="Courier,monospace" font-size="11.00">InstanceBoost</text>
</g>
<!-- \\Sajari\\Search\\FieldInstanceBoost&#45;&gt;\\Sajari\\Search\\InstanceBoost -->
<g id="edge18" class="edge"><title>\\Sajari\\Search\\FieldInstanceBoost&#45;&gt;\\Sajari\\Search\\InstanceBoost</title>
<path fill="none" stroke="black" d="M238.825,-534.202C208.51,-541.598 172.89,-550.289 143.454,-557.471"/>
<polygon fill="none" stroke="black" points="142.61,-554.074 133.725,-559.845 144.269,-560.875 142.61,-554.074"/>
</g>
<!-- \\Sajari\\Search\\FilterFieldBoost -->
<g id="node35" class="node"><title>\\Sajari\\Search\\FilterFieldBoost</title>
<polygon fill="none" stroke="black" points="366.847,-860 245.611,-860 245.611,-824 366.847,-824 366.847,-860"/>
<text text-anchor="middle" x="306.229" y="-838.7" font-family="Courier,monospace" font-size="11.00">FilterFieldBoost</text>
</g>
<!-- \\Sajari\\Search\\FilterFieldBoost&#45;&gt;\\Sajari\\Search\\FieldBoost -->
<g id="edge19" class="edge"><title>\\Sajari\\Search\\FilterFieldBoost&#45;&gt;\\Sajari\\Search\\FieldBoost</title>
<path fill="none" stroke="black" d="M245.336,-842C210.566,-842 167.258,-842 134.255,-842"/>
<polygon fill="none" stroke="black" points="133.926,-838.5 123.926,-842 133.926,-845.5 133.926,-838.5"/>
</g>
<!-- \\Sajari\\Search\\GeoFilter -->
<g id="node36" class="node"><title>\\Sajari\\Search\\GeoFilter</title>
<polygon fill="none" stroke="black" points="344.14,-1022 268.318,-1022 268.318,-986 344.14,-986 344.14,-1022"/>
<text text-anchor="middle" x="306.229" y="-1000.7" font-family="Courier,monospace" font-size="11.00">GeoFilter</text>
</g>
<!-- \\Sajari\\Search\\GeoFilter&#45;&gt;\\Sajari\\Search\\Filter -->
<g id="edge20" class="edge"><title>\\Sajari\\Search\\GeoFilter&#45;&gt;\\Sajari\\Search\\Filter</title>
<path fill="none" stroke="black" d="M268.185,-1004C231.429,-1004 174.844,-1004 134.074,-1004"/>
<polygon fill="none" stroke="black" points="134.071,-1000.5 124.071,-1004 134.071,-1007.5 134.071,-1000.5"/>
</g>
<!-- \\Sajari\\Search\\IndexQuery -->
<g id="node37" class="node"><title>\\Sajari\\Search\\IndexQuery</title>
<polygon fill="none" stroke="black" points="347.24,-806 265.218,-806 265.218,-770 347.24,-770 347.24,-806"/>
<text text-anchor="middle" x="306.229" y="-784.7" font-family="Courier,monospace" font-size="11.00">IndexQuery</text>
</g>
<!-- \\Sajari\\Search\\IntervalFieldBoost -->
<g id="node39" class="node"><title>\\Sajari\\Search\\IntervalFieldBoost</title>
<polygon fill="none" stroke="black" points="373.548,-752 238.91,-752 238.91,-716 373.548,-716 373.548,-752"/>
<text text-anchor="middle" x="306.229" y="-730.7" font-family="Courier,monospace" font-size="11.00">IntervalFieldBoost</text>
</g>
<!-- \\Sajari\\Search\\IntervalFieldBoost&#45;&gt;\\Sajari\\Search\\FieldBoost -->
<g id="edge21" class="edge"><title>\\Sajari\\Search\\IntervalFieldBoost&#45;&gt;\\Sajari\\Search\\FieldBoost</title>
<path fill="none" stroke="black" d="M238.859,-746.575C224.966,-750.334 210.647,-755.08 197.814,-761 166.162,-775.601 134.166,-799.32 112.179,-817.327"/>
<polygon fill="none" stroke="black" points="109.709,-814.829 104.264,-823.917 114.188,-820.208 109.709,-814.829"/>
</g>
<!-- \\Sajari\\Search\\IntervalFieldBoostPoint -->
<g id="node40" class="node"><title>\\Sajari\\Search\\IntervalFieldBoostPoint</title>
<polygon fill="none" stroke="black" points="390.054,-698 222.404,-698 222.404,-662 390.054,-662 390.054,-698"/>
<text text-anchor="middle" x="306.229" y="-676.7" font-family="Courier,monospace" font-size="11.00">IntervalFieldBoostPoint</text>
</g>
<!-- \\Sajari\\Search\\MetricAggregate -->
<g id="node41" class="node"><title>\\Sajari\\Search\\MetricAggregate</title>
<polygon fill="none" stroke="black" points="363.745,-1292 248.713,-1292 248.713,-1256 363.745,-1256 363.745,-1292"/>
<text text-anchor="middle" x="306.229" y="-1270.7" font-family="Courier,monospace" font-size="11.00">MetricAggregate</text>
</g>
<!-- \\Sajari\\Search\\MetricAggregate&#45;&gt;\\Sajari\\Search\\Aggregate -->
<g id="edge22" class="edge"><title>\\Sajari\\Search\\MetricAggregate&#45;&gt;\\Sajari\\Search\\Aggregate</title>
<path fill="none" stroke="black" d="M248.52,-1287.84C213.084,-1296.48 167.874,-1307.51 133.803,-1315.83"/>
<polygon fill="none" stroke="black" points="132.944,-1312.43 124.059,-1318.2 134.604,-1319.23 132.944,-1312.43"/>
</g>
<!-- \\Sajari\\Search\\MetricResponseAggregate -->
<g id="node42" class="node"><title>\\Sajari\\Search\\MetricResponseAggregate</title>
<polygon fill="none" stroke="black" points="390.054,-590 222.404,-590 222.404,-554 390.054,-554 390.054,-590"/>
<text text-anchor="middle" x="306.229" y="-568.7" font-family="Courier,monospace" font-size="11.00">MetricResponseAggregate</text>
</g>
<!-- \\Sajari\\Search\\PosNegInstanceBoost -->
<g id="node43" class="node"><title>\\Sajari\\Search\\PosNegInstanceBoost</title>
<polygon fill="none" stroke="black" points="377.15,-644 235.308,-644 235.308,-608 377.15,-608 377.15,-644"/>
<text text-anchor="middle" x="306.229" y="-622.7" font-family="Courier,monospace" font-size="11.00">PosNegInstanceBoost</text>
</g>
<!-- \\Sajari\\Search\\PosNegInstanceBoost&#45;&gt;\\Sajari\\Search\\InstanceBoost -->
<g id="edge23" class="edge"><title>\\Sajari\\Search\\PosNegInstanceBoost&#45;&gt;\\Sajari\\Search\\InstanceBoost</title>
<path fill="none" stroke="black" d="M235.505,-608.988C206.036,-601.798 172.058,-593.508 143.748,-586.601"/>
<polygon fill="none" stroke="black" points="144.533,-583.189 133.988,-584.219 142.873,-589.99 144.533,-583.189"/>
</g>
<!-- \\Sajari\\Search\\PosNegToken -->
<g id="node44" class="node"><title>\\Sajari\\Search\\PosNegToken</title>
<polygon fill="none" stroke="black" points="350.342,-482 262.116,-482 262.116,-446 350.342,-446 350.342,-482"/>
<text text-anchor="middle" x="306.229" y="-460.7" font-family="Courier,monospace" font-size="11.00">PosNegToken</text>
</g>
<!-- \\Sajari\\Search\\Request -->
<g id="node45" class="node"><title>\\Sajari\\Search\\Request</title>
<polygon fill="none" stroke="black" points="337.437,-428 275.021,-428 275.021,-392 337.437,-392 337.437,-428"/>
<text text-anchor="middle" x="306.229" y="-406.7" font-family="Courier,monospace" font-size="11.00">Request</text>
</g>
<!-- \\Sajari\\Search\\Response -->
<g id="node46" class="node"><title>\\Sajari\\Search\\Response</title>
<polygon fill="none" stroke="black" points="340.538,-374 271.92,-374 271.92,-338 340.538,-338 340.538,-374"/>
<text text-anchor="middle" x="306.229" y="-352.7" font-family="Courier,monospace" font-size="11.00">Response</text>
</g>
<!-- \\Sajari\\Search\\Result -->
<g id="node47" class="node"><title>\\Sajari\\Search\\Result</title>
<polygon fill="none" stroke="black" points="333.837,-320 278.621,-320 278.621,-284 333.837,-284 333.837,-320"/>
<text text-anchor="middle" x="306.229" y="-298.7" font-family="Courier,monospace" font-size="11.00">Result</text>
</g>
<!-- \\Sajari\\Search\\ResultAggregate -->
<g id="node48" class="node"><title>\\Sajari\\Search\\ResultAggregate</title>
<polygon fill="none" stroke="black" points="363.745,-266 248.713,-266 248.713,-230 363.745,-230 363.745,-266"/>
<text text-anchor="middle" x="306.229" y="-244.7" font-family="Courier,monospace" font-size="11.00">ResultAggregate</text>
</g>
<!-- \\Sajari\\Search\\Sort -->
<g id="node49" class="node"><title>\\Sajari\\Search\\Sort</title>
<polygon fill="none" stroke="black" points="333.229,-212 279.229,-212 279.229,-176 333.229,-176 333.229,-212"/>
<text text-anchor="middle" x="306.229" y="-190.7" font-family="Courier,monospace" font-size="11.00">Sort</text>
</g>
<!-- \\Sajari\\Search\\TextFieldBoost -->
<g id="node50" class="node"><title>\\Sajari\\Search\\TextFieldBoost</title>
<polygon fill="none" stroke="black" points="360.645,-158 251.813,-158 251.813,-122 360.645,-122 360.645,-158"/>
<text text-anchor="middle" x="306.229" y="-136.7" font-family="Courier,monospace" font-size="11.00">TextFieldBoost</text>
</g>
<!-- \\Sajari\\Search\\Tracking -->
<g id="node51" class="node"><title>\\Sajari\\Search\\Tracking</title>
<polygon fill="none" stroke="black" points="340.538,-104 271.92,-104 271.92,-68 340.538,-68 340.538,-104"/>
<text text-anchor="middle" x="306.229" y="-82.7" font-family="Courier,monospace" font-size="11.00">Tracking</text>
</g>
</g>
</svg>
